<?xml version="1.0" encoding="UTF-8" standalone="no"?>
<!-- Created with Inkscape (http://www.inkscape.org/) -->

<svg
   width="55mm"
   height="55mm"
   viewBox="0 0 55.000001 55.000001"
   version="1.1"
   id="svg24105"
   xml:space="preserve"
   xmlns="http://www.w3.org/2000/svg"
   xmlns:svg="http://www.w3.org/2000/svg"><defs
     id="defs24102" /><g
     id="layer1"
     transform="translate(-65.76722,117.38683)"><rect
       style="fill:#ffffff;stroke:none;stroke-width:0;stroke-linecap:round"
       id="rect25735"
       width="55"
       height="55"
       x="65.76722"
       y="-117.38683" /><path
       id="rect25713"
       style="fill:#000000;stroke:none;stroke-width:0;stroke-linecap:round"
       d="M 70.767432 -112.38662 L 70.767432 -67.386781 L 80.767338 -67.386781 L 80.767338 -72.386993 L 75.767126 -72.386993 L 75.767126 -87.386594 L 80.767338 -87.386594 L 80.767338 -92.386806 L 75.767126 -92.386806 L 75.767126 -107.38692 L 80.767338 -107.38692 L 80.767338 -112.38662 L 70.767432 -112.38662 z " /><path
       id="rect25721"
       style="fill:#000000;stroke:none;stroke-width:0;stroke-linecap:round"
       d="M -85.767033 112.38662 L -85.767033 67.386781 L -90.767244 67.386781 L -90.767244 87.386594 L -95.767456 87.386594 L -95.767456 67.386781 L -100.76715 67.386781 L -100.76715 112.38662 L -85.767033 112.38662 z M -90.767244 107.38692 L -95.767456 107.38692 L -95.767456 92.386806 L -90.767244 92.386806 L -90.767244 107.38692 z "
       transform="scale(-1)" /><path
       id="rect25729"
       style="fill:#000000;stroke:none;stroke-width:0;stroke-linecap:round"
       d="M 112.38662 105.76736 L 67.386781 105.76736 L 67.386781 115.76727 L 72.386993 115.76727 L 72.386993 110.76706 L 107.38692 110.76706 L 107.38692 115.76727 L 112.38662 115.76727 L 112.38662 105.76736 z "
       transform="rotate(-90)" /></g></svg>
